STARTFONT 2.1
FONT -Bitstream-Charter-Medium-R-Normal--33-240-100-100-P-183-ISO8859-15
SIZE 24 100 100
FONTBOUNDINGBOX 33 40 -2 -8

STARTPROPERTIES 25
FONTNAME_REGISTRY ""
FAMILY_NAME "Charter"
FOUNDRY "Bitstream"
WEIGHT_NAME "Medium"
SETWIDTH_NAME "Normal"
SLANT "R"
ADD_STYLE_NAME ""
PIXEL_SIZE 33
POINT_SIZE 240
RESOLUTION_X 100
RESOLUTION_Y 100
SPACING "P"
AVERAGE_WIDTH 183
CHARSET_REGISTRY "ISO8859"
CHARSET_ENCODING "15"
CAP_HEIGHT 22
X_HEIGHT 16
CHARSET_COLLECTIONS "ASCII ISOLATIN1"
FACE_NAME "Bitstream Charter Roman"
COPYRIGHT "Copyright 1987 by Bitstream Inc. Charter Registered trademark of Bitstream Inc."
WEIGHT 10
QUAD_WIDTH 20
DEFAULT_CHAR 0
FONT_DESCENT 8
FONT_ASCENT 32
ENDPROPERTIES

CHARS 191

STARTCHAR space
ENCODING 32
SWIDTH 278 0
DWIDTH 9 0
BBX 1 1 0 0
BITMAP
00
ENDCHAR

STARTCHAR exclam
ENCODING 33
SWIDTH 338 0
DWIDTH 11 0
BBX 4 22 4 0
BITMAP
60
F0
F0
F0
F0
F0
F0
F0
60
60
60
60
60
60
60
60
00
00
60
F0
F0
60
ENDCHAR

STARTCHAR quotedbl
ENCODING 34
SWIDTH 331 0
DWIDTH 11 0
BBX 9 10 1 13
BITMAP
E380
E380
E380
E380
E380
4100
4100
4100
4100
4100
ENDCHAR

STARTCHAR numbersign
ENCODING 35
SWIDTH 745 0
DWIDTH 25 0
BBX 21 25 2 -2
BITMAP
003060
003060
0020C0
0060C0
0060C0
004180
00C180
00C100
3FFFF8
3FFFF8
018300
010600
030600
030600
020C00
FFFFF0
FFFFF0
040800
0C1800
0C1800
081000
183000
183000
106000
306000
ENDCHAR

STARTCHAR dollar
ENCODING 36
SWIDTH 556 0
DWIDTH 18 0
BBX 15 27 2 -3
BITMAP
0100
0100
07F0
1FFC
3D1C
710C
E10C
E10C
E100
F100
7900
7F00
1FE0
07F8
017C
011E
011E
810E
810E
810E
C11C
E138
FFF0
7FC0
0100
0100
0100
ENDCHAR

STARTCHAR percent
ENCODING 37
SWIDTH 852 0
DWIDTH 28 0
BBX 25 22 2 0
BITMAP
3E003000
63003000
63006000
C180C000
C180C000
C1818000
C1810000
C1830000
C1860000
C1843E00
630C6300
63186300
3E18C180
0030C180
0060C180
0060C180
00C0C180
0180C180
0180C180
03006300
06006300
06003E00
ENDCHAR

STARTCHAR ampersand
ENCODING 38
SWIDTH 704 0
DWIDTH 23 0
BBX 21 22 1 0
BITMAP
0FC000
187000
387000
303800
303800
303800
303800
387000
1C6000
1FC000
0F8000
1F87F8
73C0C0
61E0C0
E0F180
E07980
E03F00
E01E00
F00F00
701F80
3C7380
1FC1F8
ENDCHAR

STARTCHAR quoteright
ENCODING 39
SWIDTH 201 0
DWIDTH 7 0
BBX 5 9 1 14
BITMAP
70
F8
F8
18
18
10
30
60
C0
ENDCHAR

STARTCHAR parenleft
ENCODING 40
SWIDTH 417 0
DWIDTH 14 0
BBX 9 29 4 -5
BITMAP
0180
0780
0E00
1C00
3800
3000
7000
7000
6000
E000
E000
E000
E000
E000
E000
E000
E000
E000
E000
E000
6000
7000
7000
3000
3800
1C00
0E00
0780
0180
ENDCHAR

STARTCHAR parenright
ENCODING 41
SWIDTH 417 0
DWIDTH 14 0
BBX 9 29 1 -5
BITMAP
C000
F000
3800
1C00
0E00
0600
0700
0700
0300
0380
0380
0380
0380
0380
0380
0380
0380
0380
0380
0380
0300
0700
0700
0600
0E00
1C00
3800
F000
C000
ENDCHAR

STARTCHAR asterisk
ENCODING 42
SWIDTH 500 0
DWIDTH 17 0
BBX 13 13 2 11
BITMAP
0200
0700
0700
0700
2220
F278
7DF0
0000
0500
0D80
18C0
18C0
3060
ENDCHAR

STARTCHAR plus
ENCODING 43
SWIDTH 833 0
DWIDTH 28 0
BBX 20 20 4 0
BITMAP
006000
006000
006000
006000
006000
006000
006000
006000
006000
FFFFF0
FFFFF0
006000
006000
006000
006000
006000
006000
006000
006000
006000
ENDCHAR

STARTCHAR comma
ENCODING 44
SWIDTH 278 0
DWIDTH 9 0
BBX 5 10 1 -6
BITMAP
30
78
78
78
18
18
10
30
60
C0
ENDCHAR

STARTCHAR hyphen
ENCODING 45
SWIDTH 319 0
DWIDTH 11 0
BBX 8 2 2 7
BITMAP
FF
FF
ENDCHAR

STARTCHAR period
ENCODING 46
SWIDTH 278 0
DWIDTH 9 0
BBX 4 4 3 0
BITMAP
60
F0
F0
60
ENDCHAR

STARTCHAR slash
ENCODING 47
SWIDTH 481 0
DWIDTH 16 0
BBX 16 25 -1 -3
BITMAP
0003
0006
0006
000C
0008
0018
0030
0030
0060
0060
00C0
00C0
0180
0300
0300
0600
0600
0C00
0C00
1800
1800
3000
6000
6000
C000
ENDCHAR

STARTCHAR zero
ENCODING 48
SWIDTH 556 0
DWIDTH 18 0
BBX 15 22 2 0
BITMAP
07C0
0FE0
1C70
3838
701C
701C
600C
E00E
E00E
E00E
E00E
E00E
E00E
E00E
E00E
600C
701C
701C
3838
1C70
0FE0
07C0
ENDCHAR

STARTCHAR one
ENCODING 49
SWIDTH 556 0
DWIDTH 18 0
BBX 11 22 3 0
BITMAP
0700
3F00
F700
0700
0700
0700
0700
0700
0700
0700
0700
0700
0700
0700
0700
0700
0700
0700
0700
0700
0700
7FE0
ENDCHAR

STARTCHAR two
ENCODING 50
SWIDTH 556 0
DWIDTH 18 0
BBX 16 22 1 0
BITMAP
07E0
1FF8
303C
701C
700E
700E
000E
000E
001C
001C
0038
0030
0070
01C0
0380
0700
0E03
1803
3003
FFFF
FFFF
FFFF
ENDCHAR

STARTCHAR three
ENCODING 51
SWIDTH 556 0
DWIDTH 18 0
BBX 14 22 2 0
BITMAP
0F80
3FE0
70F0
6078
E038
6038
0038
0038
0070
00E0
0F80
0FE0
0078
0038
001C
001C
001C
C01C
E038
70F0
3FE0
1F80
ENDCHAR

STARTCHAR four
ENCODING 52
SWIDTH 556 0
DWIDTH 18 0
BBX 17 23 1 -1
BITMAP
003800
003800
007800
00F800
01B800
01B800
033800
063800
0C3800
1C3800
183800
303800
603800
E03800
FFFF80
FFFF80
003800
003800
003800
003800
003800
003800
003800
ENDCHAR

STARTCHAR five
ENCODING 53
SWIDTH 556 0
DWIDTH 18 0
BBX 15 22 1 0
BITMAP
3FFC
3FFC
3FFC
3800
3800
3800
3800
3800
3800
3FE0
3FF8
007C
001C
000E
000E
000E
000E
700C
F01C
7838
3FE0
0F80
ENDCHAR

STARTCHAR six
ENCODING 54
SWIDTH 556 0
DWIDTH 18 0
BBX 15 23 2 0
BITMAP
0070
01F0
0780
0E00
1C00
3800
3000
7000
63E0
EFF0
F838
E01C
E01E
E00E
E00E
E00E
E00E
700E
701C
3818
1C38
0FE0
07C0
ENDCHAR

STARTCHAR seven
ENCODING 55
SWIDTH 556 0
DWIDTH 18 0
BBX 15 23 2 -1
BITMAP
FFFE
FFFE
FFFE
C00C
C018
C018
0030
0030
0060
0060
00C0
00C0
0180
0180
0300
0700
0600
0E00
0C00
1C00
1800
3800
7000
ENDCHAR

STARTCHAR eight
ENCODING 56
SWIDTH 556 0
DWIDTH 18 0
BBX 15 22 2 0
BITMAP
03C0
0FF0
1C38
3818
301C
701C
701C
3818
3C18
1F30
07C0
1DF0
307C
601C
E00E
E00E
E00E
E00E
701C
3838
1FF0
07C0
ENDCHAR

STARTCHAR nine
ENCODING 57
SWIDTH 556 0
DWIDTH 18 0
BBX 15 24 2 -2
BITMAP
07C0
1FF0
3C78
701C
701C
E00E
E00E
E00E
E00E
E00E
F00E
700E
3C3C
1FFC
0F9C
0038
0030
0070
00E0
01C0
0380
0E00
3C00
3000
ENDCHAR

STARTCHAR colon
ENCODING 58
SWIDTH 319 0
DWIDTH 11 0
BBX 4 16 4 0
BITMAP
60
F0
F0
60
00
00
00
00
00
00
00
00
60
F0
F0
60
ENDCHAR

STARTCHAR semicolon
ENCODING 59
SWIDTH 319 0
DWIDTH 11 0
BBX 6 22 2 -6
BITMAP
38
7C
7C
38
00
00
00
00
00
00
00
00
38
78
7C
7C
0C
0C
08
18
70
C0
ENDCHAR

STARTCHAR less
ENCODING 60
SWIDTH 833 0
DWIDTH 28 0
BBX 19 17 4 1
BITMAP
000020
0001E0
0007C0
003E00
00F800
07C000
1F0000
F80000
E00000
F80000
1F0000
07C000
00F800
003E00
0007C0
0001E0
000020
ENDCHAR

STARTCHAR equal
ENCODING 61
SWIDTH 833 0
DWIDTH 28 0
BBX 20 8 4 6
BITMAP
FFFFF0
FFFFF0
000000
000000
000000
000000
FFFFF0
FFFFF0
ENDCHAR

STARTCHAR greater
ENCODING 62
SWIDTH 833 0
DWIDTH 28 0
BBX 19 17 5 1
BITMAP
800000
F00000
7C0000
0F8000
03E000
007C00
001F00
0003E0
0000E0
0003E0
001F00
007C00
03E000
0F8000
7C0000
F00000
800000
ENDCHAR

STARTCHAR question
ENCODING 63
SWIDTH 486 0
DWIDTH 16 0
BBX 12 22 2 0
BITMAP
3F80
F1C0
E0E0
6070
0070
0070
0070
0070
00E0
01C0
0380
0E00
0C00
0C00
0C00
0C00
0000
0000
0C00
1E00
1E00
0C00
ENDCHAR

STARTCHAR at
ENCODING 64
SWIDTH 942 0
DWIDTH 31 0
BBX 26 28 3 -5
BITMAP
003FE000
01E03800
07000E00
0E000600
18000300
38000180
300FB180
6039E0C0
6060E0C0
60C0E0C0
C1C0E0C0
C1C0E0C0
C380C0C0
C380C180
C380C180
C381C180
C381C300
C383C200
E1C7C600
61FDF800
6070F000
70000000
38000000
1C000000
0E000600
07C03800
01FFE000
007F0000
ENDCHAR

STARTCHAR A
ENCODING 65
SWIDTH 639 0
DWIDTH 21 0
BBX 22 22 0 0
BITMAP
003000
007800
007800
007800
00DC00
00DC00
019E00
018E00
018E00
030700
030700
030700
060380
07FF80
0C01C0
0C01C0
0C01C0
1800E0
1800E0
3000F0
300070
FE03FC
ENDCHAR

STARTCHAR B
ENCODING 66
SWIDTH 604 0
DWIDTH 20 0
BBX 18 22 1 0
BITMAP
FFFC00
1C1E00
1C0700
1C0780
1C0780
1C0380
1C0780
1C0700
1C0F00
1C1C00
1FFE00
1C0F80
1C0380
1C01C0
1C01C0
1C01C0
1C01C0
1C01C0
1C03C0
1C0780
1C1F00
FFFC00
ENDCHAR

STARTCHAR C
ENCODING 67
SWIDTH 632 0
DWIDTH 21 0
BBX 19 22 1 0
BITMAP
01FFC0
0F81E0
1E00E0
3C0060
780060
700060
700000
E00000
E00000
E00000
E00000
E00000
E00000
E00000
F00000
700000
700060
380060
3C0060
1E00E0
0F80E0
01FFC0
ENDCHAR

STARTCHAR D
ENCODING 68
SWIDTH 694 0
DWIDTH 23 0
BBX 21 22 1 0
BITMAP
FFFC00
1C0F80
1C03C0
1C00E0
1C00E0
1C0070
1C0070
1C0038
1C0038
1C0038
1C0038
1C0038
1C0038
1C0038
1C0038
1C0070
1C0070
1C00F0
1C00E0
1C03C0
1C0F80
FFFC00
ENDCHAR

STARTCHAR E
ENCODING 69
SWIDTH 576 0
DWIDTH 19 0
BBX 17 22 1 0
BITMAP
FFFF00
1C0700
1C0300
1C0300
1C0300
1C0000
1C0000
1C0800
1C0800
1C0800
1FF800
1C0800
1C0800
1C0800
1C0000
1C0000
1C0000
1C0180
1C0180
1C0180
1C0380
FFFF80
ENDCHAR

STARTCHAR F
ENCODING 70
SWIDTH 537 0
DWIDTH 18 0
BBX 16 22 1 0
BITMAP
FFFF
1C07
1C07
1C03
1C03
1C00
1C00
1C08
1C08
1C08
1FF8
1C08
1C08
1C08
1C00
1C00
1C00
1C00
1C00
1C00
1C00
FF80
ENDCHAR

STARTCHAR G
ENCODING 71
SWIDTH 694 0
DWIDTH 23 0
BBX 21 22 1 0
BITMAP
01FFC0
0F83C0
1E00C0
3C00C0
3800C0
7000C0
700000
700000
E00000
E00000
E00000
E00000
E00FF8
E001C0
E001C0
7001C0
7001C0
3801C0
3C01C0
1E01C0
0F81C0
01FF80
ENDCHAR

STARTCHAR H
ENCODING 72
SWIDTH 738 0
DWIDTH 25 0
BBX 23 22 1 0
BITMAP
FF83FE
1C0070
1C0070
1C0070
1C0070
1C0070
1C0070
1C0070
1C0070
1C0070
1FFFF0
1C0070
1C0070
1C0070
1C0070
1C0070
1C0070
1C0070
1C0070
1C0070
1C0070
FF83FE
ENDCHAR

STARTCHAR I
ENCODING 73
SWIDTH 324 0
DWIDTH 11 0
BBX 9 22 1 0
BITMAP
FF80
1C00
1C00
1C00
1C00
1C00
1C00
1C00
1C00
1C00
1C00
1C00
1C00
1C00
1C00
1C00
1C00
1C00
1C00
1C00
1C00
FF80
ENDCHAR

STARTCHAR J
ENCODING 74
SWIDTH 444 0
DWIDTH 15 0
BBX 15 22 0 0
BITMAP
03FE
0070
0070
0070
0070
0070
0070
0070
0070
0070
0070
0070
0070
0070
0070
0070
C070
C070
C0E0
E0E0
E3C0
FF00
ENDCHAR

STARTCHAR K
ENCODING 75
SWIDTH 611 0
DWIDTH 20 0
BBX 20 22 1 0
BITMAP
FF87E0
1C0180
1C0300
1C0600
1C0E00
1C0C00
1C1800
1C3000
1C7000
1C6000
1CE000
1FF000
1C7000
1C3800
1C3C00
1C1C00
1C0E00
1C0F00
1C0700
1C0380
1C0380
FF81F0
ENDCHAR

STARTCHAR L
ENCODING 76
SWIDTH 520 0
DWIDTH 17 0
BBX 16 22 1 0
BITMAP
FF80
1C00
1C00
1C00
1C00
1C00
1C00
1C00
1C00
1C00
1C00
1C00
1C00
1C00
1C00
1C00
1C03
1C03
1C03
1C03
1C03
FFFF
ENDCHAR

STARTCHAR M
ENCODING 77
SWIDTH 866 0
DWIDTH 29 0
BBX 27 22 1 0
BITMAP
FE001FE0
1F001F00
1F001F00
1B003700
1B803700
1B802700
19C06700
19C06700
19C04700
18E0C700
18E0C700
18608700
18718700
18718700
18310700
183B0700
183B0700
181E0700
181E0700
181C0700
180C0700
FE0C1FE0
ENDCHAR

STARTCHAR N
ENCODING 78
SWIDTH 713 0
DWIDTH 24 0
BBX 22 22 1 0
BITMAP
FE01FC
1E0060
1F0060
1F0060
1B8060
1BC060
19C060
18E060
18E060
187060
183860
183860
181C60
181C60
180E60
180760
180760
1803E0
1803E0
1801E0
1800E0
FE00E0
ENDCHAR

STARTCHAR O
ENCODING 79
SWIDTH 731 0
DWIDTH 24 0
BBX 22 22 1 0
BITMAP
03FF00
0F03C0
1E01E0
380070
780078
700038
700038
E0001C
E0001C
E0001C
E0001C
E0001C
E0001C
E0001C
E0001C
700038
700038
780078
380070
1E01E0
0F03C0
03FF00
ENDCHAR

STARTCHAR P
ENCODING 80
SWIDTH 558 0
DWIDTH 19 0
BBX 17 22 1 0
BITMAP
FFF800
1C1E00
1C0700
1C0780
1C0380
1C0380
1C0380
1C0380
1C0380
1C0700
1C0700
1C1E00
1FF800
1C0000
1C0000
1C0000
1C0000
1C0000
1C0000
1C0000
1C0000
FF8000
ENDCHAR

STARTCHAR Q
ENCODING 81
SWIDTH 731 0
DWIDTH 24 0
BBX 22 28 1 -6
BITMAP
03FF00
0F03C0
1E01E0
380070
780078
700038
700038
E0001C
E0001C
E0001C
E0001C
E0001C
E0001C
E0001C
E0001C
700038
700038
780078
380070
1E01E0
0F03C0
03FF00
007800
007800
003C00
003E00
001FF8
0007F0
ENDCHAR

STARTCHAR R
ENCODING 82
SWIDTH 646 0
DWIDTH 22 0
BBX 21 22 1 0
BITMAP
FFFC00
1C1F00
1C0700
1C0780
1C0380
1C0380
1C0380
1C0380
1C0300
1C0700
1C0E00
1FF000
1C1E00
1C0E00
1C0700
1C0700
1C0700
1C0300
1C0380
1C0380
1C01C0
FF81F8
ENDCHAR

STARTCHAR S
ENCODING 83
SWIDTH 556 0
DWIDTH 18 0
BBX 15 22 2 0
BITMAP
0FFC
381C
700C
E00C
E00C
E000
E000
F000
7C00
7F00
1FE0
07F8
01FC
007C
001E
000E
C00E
C00E
C00C
C01C
E078
FFE0
ENDCHAR

STARTCHAR T
ENCODING 84
SWIDTH 597 0
DWIDTH 20 0
BBX 19 22 1 0
BITMAP
FFFFE0
C0E060
C0E060
C0E060
C0E060
00E000
00E000
00E000
00E000
00E000
00E000
00E000
00E000
00E000
00E000
00E000
00E000
00E000
00E000
00E000
00E000
07FC00
ENDCHAR

STARTCHAR U
ENCODING 85
SWIDTH 694 0
DWIDTH 23 0
BBX 21 22 1 0
BITMAP
FF03F8
1C00C0
1C00C0
1C00C0
1C00C0
1C00C0
1C00C0
1C00C0
1C00C0
1C00C0
1C00C0
1C00C0
1C00C0
1C00C0
1C00C0
1C00C0
1C00C0
1E01C0
0E0180
0F0300
07FE00
01FC00
ENDCHAR

STARTCHAR V
ENCODING 86
SWIDTH 618 0
DWIDTH 21 0
BBX 22 22 -1 0
BITMAP
FF01FC
3C0030
1C0060
1C0060
1E0060
0E00C0
0E00C0
0F00C0
070180
070180
038300
038300
038300
01C600
01C600
00E400
00EC00
00EC00
007800
007800
007800
003000
ENDCHAR

STARTCHAR W
ENCODING 87
SWIDTH 928 0
DWIDTH 31 0
BBX 31 22 0 0
BITMAP
FF0180FE
38038038
3C03C030
1C03C030
1C06C030
1C06E070
0E06E060
0E0C6060
0E0C7060
0E0C70C0
070830C0
071830C0
071838C0
03983980
03B01980
03B01D80
03B01D80
01E00F00
01E00F00
01E00F00
00C00600
00C00600
ENDCHAR

STARTCHAR X
ENCODING 88
SWIDTH 600 0
DWIDTH 20 0
BBX 21 22 0 0
BITMAP
7F83F8
1E00C0
0E01C0
0F0180
070300
038600
03CE00
01CC00
01F800
00F800
007000
007800
00FC00
019C00
019E00
030E00
060700
0E0780
0C0380
1803C0
3801E0
FE0FF8
ENDCHAR

STARTCHAR Y
ENCODING 89
SWIDTH 586 0
DWIDTH 20 0
BBX 21 22 0 0
BITMAP
FF03F8
3C00E0
1C00C0
1E00C0
0E0180
070300
070300
038600
03CE00
01CC00
01F800
00F800
007000
007000
007000
007000
007000
007000
007000
007000
007000
03FE00
ENDCHAR

STARTCHAR Z
ENCODING 90
SWIDTH 586 0
DWIDTH 19 0
BBX 16 22 1 0
BITMAP
7FFF
600E
601E
601C
603C
0038
0070
00F0
00E0
01E0
01C0
0380
0780
0700
0F00
1E00
1C03
3C03
3803
7003
F003
FFFF
ENDCHAR

STARTCHAR bracketleft
ENCODING 91
SWIDTH 421 0
DWIDTH 14 0
BBX 8 28 5 -5
BITMAP
FF
E0
E0
E0
E0
E0
E0
E0
E0
E0
E0
E0
E0
E0
E0
E0
E0
E0
E0
E0
E0
E0
E0
E0
E0
E0
E0
FF
ENDCHAR

STARTCHAR backslash
ENCODING 92
SWIDTH 481 0
DWIDTH 16 0
BBX 17 25 0 -3
BITMAP
E00000
600000
300000
380000
180000
0C0000
0C0000
060000
060000
030000
018000
018000
00C000
00C000
006000
006000
003000
001800
001800
000C00
000C00
000600
000700
000300
000180
ENDCHAR

STARTCHAR bracketright
ENCODING 93
SWIDTH 421 0
DWIDTH 14 0
BBX 8 28 1 -5
BITMAP
FF
07
07
07
07
07
07
07
07
07
07
07
07
07
07
07
07
07
07
07
07
07
07
07
07
07
07
FF
ENDCHAR

STARTCHAR asciicircum
ENCODING 94
SWIDTH 1000 0
DWIDTH 33 0
BBX 20 9 6 14
BITMAP
00F000
01F800
039C00
070E00
0E0700
1C0380
3801C0
600060
C00030
ENDCHAR

STARTCHAR underscore
ENCODING 95
SWIDTH 500 0
DWIDTH 17 0
BBX 17 2 0 -8
BITMAP
FFFF80
FFFF80
ENDCHAR

STARTCHAR quoteleft
ENCODING 96
SWIDTH 201 0
DWIDTH 7 0
BBX 5 9 1 14
BITMAP
18
30
60
40
C0
C0
F8
F8
70
ENDCHAR

STARTCHAR a
ENCODING 97
SWIDTH 507 0
DWIDTH 17 0
BBX 15 16 1 0
BITMAP
0FE0
3070
7038
7038
0038
0038
00F8
0F38
3C38
7038
E038
E038
E038
F078
79F8
3F3E
ENDCHAR

STARTCHAR b
ENCODING 98
SWIDTH 539 0
DWIDTH 18 0
BBX 16 24 1 0
BITMAP
3800
F800
3800
3800
3800
3800
3800
3800
3FF8
383C
381E
380E
380F
3807
3807
3807
3807
3807
3807
380E
380E
381C
3838
3FE0
ENDCHAR

STARTCHAR c
ENCODING 99
SWIDTH 446 0
DWIDTH 15 0
BBX 13 16 1 0
BITMAP
07E0
1C38
3838
7038
7030
E000
E000
E000
E000
E000
E000
7000
7800
3C18
1FF8
07E0
ENDCHAR

STARTCHAR d
ENCODING 100
SWIDTH 565 0
DWIDTH 18 0
BBX 16 24 1 0
BITMAP
001C
007C
001C
001C
001C
001C
001C
001C
07FC
1C1C
381C
701C
701C
E01C
E01C
E01C
E01C
E01C
E01C
F01C
701C
783C
3FFC
1F9F
ENDCHAR

STARTCHAR e
ENCODING 101
SWIDTH 491 0
DWIDTH 16 0
BBX 14 16 1 0
BITMAP
0FE0
1C78
3038
701C
601C
E01C
FFFC
E000
E000
E000
E000
7000
7000
7804
3E1C
0FF0
ENDCHAR

STARTCHAR f
ENCODING 102
SWIDTH 321 0
DWIDTH 11 0
BBX 12 24 1 0
BITMAP
03F0
0EF0
0C20
1800
3800
3800
3800
3800
FFC0
3800
3800
3800
3800
3800
3800
3800
3800
3800
3800
3800
3800
3800
3800
FF00
ENDCHAR

STARTCHAR g
ENCODING 103
SWIDTH 523 0
DWIDTH 17 0
BBX 16 23 1 -7
BITMAP
0FC0
1CFF
3870
7038
7038
7038
7038
7038
3870
1CE0
0FC0
0400
0C00
0F80
0FF8
38FC
701E
E00E
E00E
E00C
F018
7830
1FC0
ENDCHAR

STARTCHAR h
ENCODING 104
SWIDTH 564 0
DWIDTH 19 0
BBX 17 24 1 0
BITMAP
380000
F80000
380000
380000
380000
380000
380000
380000
38F800
3BFC00
3C1E00
380E00
380E00
380E00
380E00
380E00
380E00
380E00
380E00
380E00
380E00
380E00
380E00
FE3F80
ENDCHAR

STARTCHAR i
ENCODING 105
SWIDTH 280 0
DWIDTH 9 0
BBX 7 24 1 0
BITMAP
38
3C
3C
38
00
00
00
00
38
F8
38
38
38
38
38
38
38
38
38
38
38
38
38
FE
ENDCHAR

STARTCHAR j
ENCODING 106
SWIDTH 266 0
DWIDTH 9 0
BBX 8 31 -2 -7
BITMAP
07
07
0F
07
00
00
00
00
07
1F
07
07
07
07
07
07
07
07
07
07
07
07
07
07
07
07
07
06
C6
EC
F0
ENDCHAR

STARTCHAR k
ENCODING 107
SWIDTH 518 0
DWIDTH 18 0
BBX 17 24 1 0
BITMAP
380000
F80000
380000
380000
380000
380000
380000
380000
387F00
381800
383000
386000
38C000
398000
3B8000
3F8000
39C000
38E000
38F000
387000
383800
383C00
381E00
FE0F80
ENDCHAR

STARTCHAR l
ENCODING 108
SWIDTH 282 0
DWIDTH 9 0
BBX 7 24 1 0
BITMAP
38
F8
38
38
38
38
38
38
38
38
38
38
38
38
38
38
38
38
38
38
38
38
38
FE
ENDCHAR

STARTCHAR m
ENCODING 109
SWIDTH 843 0
DWIDTH 27 0
BBX 25 16 1 0
BITMAP
39F0F800
FFFBFC00
3C3E1E00
381C0E00
381C0E00
381C0E00
381C0E00
381C0E00
381C0E00
381C0E00
381C0E00
381C0E00
381C0E00
381C0E00
381C0E00
FE7F3F80
ENDCHAR

STARTCHAR n
ENCODING 110
SWIDTH 569 0
DWIDTH 19 0
BBX 17 16 1 0
BITMAP
39F800
FFFC00
3C1E00
380E00
380E00
380E00
380E00
380E00
380E00
380E00
380E00
380E00
380E00
380E00
380E00
FE3F80
ENDCHAR

STARTCHAR o
ENCODING 111
SWIDTH 539 0
DWIDTH 18 0
BBX 16 16 1 0
BITMAP
07F0
1C3C
381C
700E
700E
E007
E007
E007
E007
E007
E007
700E
700E
381C
1C38
0FE0
ENDCHAR

STARTCHAR p
ENCODING 112
SWIDTH 551 0
DWIDTH 18 0
BBX 16 23 1 -7
BITMAP
39F0
FFFC
3C1E
380E
380E
3807
3807
3807
3807
3807
3807
380E
380E
381C
3838
3FE0
3800
3800
3800
3800
3800
3800
FF00
ENDCHAR

STARTCHAR q
ENCODING 113
SWIDTH 531 0
DWIDTH 18 0
BBX 16 23 1 -7
BITMAP
07FC
1C1C
381C
701C
701C
E01C
E01C
E01C
E01C
E01C
E01C
E01C
701C
781C
3C3C
1FDC
001C
001C
001C
001C
001C
001C
00FF
ENDCHAR

STARTCHAR r
ENCODING 114
SWIDTH 382 0
DWIDTH 13 0
BBX 12 16 1 0
BITMAP
38F0
F9F0
3F30
3C00
3800
3800
3800
3800
3800
3800
3800
3800
3800
3800
3800
FF00
ENDCHAR

STARTCHAR s
ENCODING 115
SWIDTH 400 0
DWIDTH 13 0
BBX 11 16 1 0
BITMAP
1FC0
70C0
E0C0
E0C0
E000
F000
7C00
3F00
0FC0
03C0
01E0
C0E0
C0E0
C0C0
E1C0
FF00
ENDCHAR

STARTCHAR t
ENCODING 116
SWIDTH 335 0
DWIDTH 11 0
BBX 10 19 1 0
BITMAP
1800
1800
3800
FFC0
3800
3800
3800
3800
3800
3800
3800
3800
3800
3800
3800
3800
3800
3C00
1FC0
ENDCHAR

STARTCHAR u
ENCODING 117
SWIDTH 569 0
DWIDTH 19 0
BBX 17 16 1 0
BITMAP
380E00
F83E00
380E00
380E00
380E00
380E00
380E00
380E00
380E00
380E00
380E00
380E00
380E00
3C1E00
1FEE00
0FCF80
ENDCHAR

STARTCHAR v
ENCODING 118
SWIDTH 494 0
DWIDTH 16 0
BBX 17 16 0 0
BITMAP
FE1F80
380600
380600
180C00
1C0C00
1C0800
0C1800
0E1000
0E3000
073000
072000
076000
03C000
03C000
03C000
018000
ENDCHAR

STARTCHAR w
ENCODING 119
SWIDTH 771 0
DWIDTH 26 0
BBX 26 16 0 0
BITMAP
FF060FC0
3C0E0300
1C0E0300
1C0F0600
1C1B0600
0E130600
0E138C00
0E338C00
06218C00
07219800
0761D800
0340D800
03C0F000
03C0F000
01C07000
01806000
ENDCHAR

STARTCHAR x
ENCODING 120
SWIDTH 504 0
DWIDTH 17 0
BBX 16 16 1 0
BITMAP
FE7E
3C18
1C18
0E30
0E60
0760
03C0
0380
03C0
02E0
06E0
0C70
1878
1838
301C
FC7F
ENDCHAR

STARTCHAR y
ENCODING 121
SWIDTH 495 0
DWIDTH 16 0
BBX 17 23 0 -7
BITMAP
FE1F80
380600
180600
1C0C00
1C0C00
0C0800
0E1800
0E1800
071000
073000
032000
03E000
03E000
01C000
01C000
018000
018000
018000
030000
030000
760000
7C0000
380000
ENDCHAR

STARTCHAR z
ENCODING 122
SWIDTH 468 0
DWIDTH 16 0
BBX 13 16 2 0
BITMAP
FFF8
C070
C0E0
C1E0
01C0
0380
0780
0700
0E00
0E00
1C00
3818
3818
7018
F018
FFF8
ENDCHAR

STARTCHAR braceleft
ENCODING 123
SWIDTH 486 0
DWIDTH 16 0
BBX 12 28 2 -5
BITMAP
00F0
03C0
0300
0700
0700
0700
0700
0700
0700
0700
0700
0E00
1C00
E000
1C00
0E00
0700
0700
0700
0700
0700
0700
0700
0700
0700
0700
0380
00F0
ENDCHAR

STARTCHAR bar
ENCODING 124
SWIDTH 500 0
DWIDTH 17 0
BBX 2 33 8 -8
BITMAP
C0
C0
C0
C0
C0
C0
C0
C0
C0
C0
C0
C0
C0
C0
C0
C0
C0
C0
C0
C0
C0
C0
C0
C0
C0
C0
C0
C0
C0
C0
C0
C0
C0
ENDCHAR

STARTCHAR braceright
ENCODING 125
SWIDTH 486 0
DWIDTH 16 0
BBX 12 28 2 -5
BITMAP
F000
3C00
0C00
0E00
0E00
0E00
0E00
0E00
0E00
0E00
0E00
0700
0380
0070
0380
0700
0E00
0E00
0E00
0E00
0E00
0E00
0E00
0E00
0E00
0E00
1C00
F800
ENDCHAR

STARTCHAR c0126
ENCODING 126
SWIDTH 1000 0
DWIDTH 33 0
BBX 19 4 7 17
BITMAP
1F0060
3FE0C0
60FF80
C01F00
ENDCHAR

STARTCHAR space
ENCODING 160
SWIDTH 278 0
DWIDTH 9 0
BBX 1 1 0 0
BITMAP
00
ENDCHAR

STARTCHAR exclamdown
ENCODING 161
SWIDTH 338 0
DWIDTH 11 0
BBX 4 22 4 0
BITMAP
60
F0
F0
60
00
00
60
60
60
60
60
60
60
60
F0
F0
F0
F0
F0
F0
F0
60
ENDCHAR

STARTCHAR cent
ENCODING 162
SWIDTH 556 0
DWIDTH 18 0
BBX 13 22 2 -3
BITMAP
0180
0180
0180
07F8
1D98
3988
7188
7188
E180
E180
E180
E180
E180
E180
7188
7188
3988
1D98
07F8
0180
0180
0180
ENDCHAR

STARTCHAR sterling
ENCODING 163
SWIDTH 556 0
DWIDTH 18 0
BBX 15 22 2 0
BITMAP
00F0
03FC
070E
0E0E
0E0E
1C00
1C00
1C00
1C00
1C00
1C00
7FF0
1C00
1C00
1C00
1C00
1800
1800
3000
2000
FFFE
FFFE
ENDCHAR

STARTCHAR EuroSign
ENCODING 164
SWIDTH 504 0
DWIDTH 17 0
BBX 17 23 -1 0
BITMAP
00FC00
018780
070380
060180
0C0080
1C0080
1C0080
1C0000
380000
380000
FFFE00
380000
FFFC00
380000
380000
380000
180000
1C0000
1C0080
0E0100
060200
070400
01F800
ENDCHAR

STARTCHAR yen
ENCODING 165
SWIDTH 556 0
DWIDTH 19 0
BBX 19 22 0 0
BITMAP
FE07E0
380180
1C0180
1C0300
0E0300
0E0600
070C00
070C00
7F9FC0
039800
01F000
01F000
00E000
7FFFC0
00E000
00E000
00E000
00E000
00E000
00E000
00E000
07FC00
ENDCHAR

STARTCHAR Scaron
ENCODING 166
SWIDTH 556 0
DWIDTH 18 0
BBX 15 31 2 0
BITMAP
1818
0C30
0660
0660
03C0
0180
0000
0000
0000
0FFC
381C
700C
E00C
E00C
E000
E000
F000
7C00
7F00
1FE0
07F8
01FC
007C
001E
000E
C00E
C00E
C00C
C01C
E078
FFE0
ENDCHAR

STARTCHAR section
ENCODING 167
SWIDTH 500 0
DWIDTH 17 0
BBX 15 29 1 -5
BITMAP
0FF8
3C3C
700C
700C
700C
7000
7C00
3F00
0FC0
0FF0
38F8
703C
601E
E00E
E00E
E00E
F01C
7C18
3F70
1FC0
07F0
00F8
003C
001C
601C
601C
601C
7838
3FE0
ENDCHAR

STARTCHAR scaron
ENCODING 168
SWIDTH 400 0
DWIDTH 13 0
BBX 11 25 1 0
BITMAP
6060
30C0
1980
1980
0F00
0600
0000
0000
0000
1FC0
70C0
E0C0
E0C0
E000
F000
7C00
3F00
0FC0
03C0
01E0
C0E0
C0E0
C0C0
E1C0
FF00
ENDCHAR

STARTCHAR copyright
ENCODING 169
SWIDTH 900 0
DWIDTH 30 0
BBX 26 25 2 -1
BITMAP
007F8000
03C0F000
07001C00
0C000E00
18000200
301F8300
207FE180
60E0E180
41C06080
C38060C0
87800040
87000040
87000040
87000040
87000040
87800040
C38060C0
41C06080
60E0E180
207FE180
301F8300
18000600
0E000C00
03807800
007FC000
ENDCHAR

STARTCHAR ordfeminine
ENCODING 170
SWIDTH 380 0
DWIDTH 13 0
BBX 12 11 1 11
BITMAP
1F80
61C0
60C0
00C0
03C0
3CC0
60C0
C0C0
C0C0
E3C0
7CF0
ENDCHAR

STARTCHAR guillemotleft
ENCODING 171
SWIDTH 442 0
DWIDTH 15 0
BBX 12 11 1 2
BITMAP
0410
0830
3870
70C0
E180
C100
E180
70C0
3870
0830
0410
ENDCHAR

STARTCHAR logicalnot
ENCODING 172
SWIDTH 833 0
DWIDTH 28 0
BBX 20 8 4 6
BITMAP
FFFFF0
FFFFF0
000030
000030
000030
000030
000030
000030
ENDCHAR

STARTCHAR hyphen
ENCODING 173
SWIDTH 319 0
DWIDTH 11 0
BBX 8 2 2 7
BITMAP
FF
FF
ENDCHAR

STARTCHAR registered
ENCODING 174
SWIDTH 900 0
DWIDTH 30 0
BBX 26 25 2 -1
BITMAP
007F8000
03C0F000
0E001800
18000E00
30000300
23FF8100
60E3C180
40E1E080
C0E0E0C0
80E0E040
80E0C040
80E18040
80FE0040
80E38040
80E1C040
80E1C040
C0E0E0C0
40E0E080
60E0F180
23F87D00
30000300
18000E00
0E001C00
03C07000
007F8000
ENDCHAR

STARTCHAR macron
ENCODING 175
SWIDTH 500 0
DWIDTH 17 0
BBX 10 2 4 20
BITMAP
FFC0
FFC0
ENDCHAR

STARTCHAR degree
ENCODING 176
SWIDTH 329 0
DWIDTH 11 0
BBX 9 9 1 14
BITMAP
3E00
6300
C180
8080
8080
8080
C180
6300
3E00
ENDCHAR

STARTCHAR plusminus
ENCODING 177
SWIDTH 833 0
DWIDTH 28 0
BBX 20 19 4 0
BITMAP
006000
006000
006000
006000
006000
006000
FFFFF0
FFFFF0
006000
006000
006000
006000
006000
006000
000000
000000
000000
FFFFF0
FFFFF0
ENDCHAR

STARTCHAR twosuperior
ENCODING 178
SWIDTH 367 0
DWIDTH 12 0
BBX 10 14 1 9
BITMAP
3F00
4180
C0C0
C0C0
00C0
00C0
0180
0300
0600
1800
3040
4040
FFC0
FFC0
ENDCHAR

STARTCHAR threesuperior
ENCODING 179
SWIDTH 367 0
DWIDTH 12 0
BBX 10 14 1 9
BITMAP
3E00
4380
C180
C180
0180
0300
1E00
0180
00C0
00C0
C0C0
C180
C380
7E00
ENDCHAR

STARTCHAR Zcaron
ENCODING 180
SWIDTH 586 0
DWIDTH 19 0
BBX 16 31 1 0
BITMAP
1818
0C30
0660
0660
03C0
0180
0000
0000
0000
7FFF
600E
601E
601C
603C
0038
0070
00F0
00E0
01E0
01C0
0380
0780
0700
0F00
1E00
1C03
3C03
3803
7003
F003
FFFF
ENDCHAR

STARTCHAR mu
ENCODING 181
SWIDTH 548 0
DWIDTH 18 0
BBX 18 21 -1 -7
BITMAP
0E0700
0C0600
0C0600
0C0E00
1C0E00
1C0C00
180C00
180C00
181C00
381C40
383C40
3C6CC0
3FEF80
678700
600000
600000
600000
E00000
E00000
E00000
C00000
ENDCHAR

STARTCHAR paragraph
ENCODING 182
SWIDTH 484 0
DWIDTH 16 0
BBX 14 25 1 -3
BITMAP
1FFC
3F30
7F30
FF30
FF30
FF30
FF30
FF30
FF30
7F30
7F30
3F30
0F30
0030
0030
0030
0030
0030
0030
0030
0030
0030
0030
0030
0030
ENDCHAR

STARTCHAR periodcentered
ENCODING 183
SWIDTH 278 0
DWIDTH 9 0
BBX 4 4 3 9
BITMAP
60
F0
F0
60
ENDCHAR

STARTCHAR zcaron
ENCODING 184
SWIDTH 468 0
DWIDTH 16 0
BBX 13 25 2 0
BITMAP
3030
1860
0CC0
0CC0
0780
0300
0000
0000
0000
FFF8
C070
C0E0
C1E0
01C0
0380
0780
0700
0E00
0E00
1C00
3818
3818
7018
F018
FFF8
ENDCHAR

STARTCHAR onesuperior
ENCODING 185
SWIDTH 367 0
DWIDTH 12 0
BBX 8 14 2 9
BITMAP
38
D8
18
18
18
18
18
18
18
18
18
18
18
7F
ENDCHAR

STARTCHAR ordmasculine
ENCODING 186
SWIDTH 405 0
DWIDTH 13 0
BBX 11 11 1 11
BITMAP
1F00
7180
60C0
C060
C060
C060
C060
C060
60C0
71C0
1F00
ENDCHAR

STARTCHAR guillemotright
ENCODING 187
SWIDTH 442 0
DWIDTH 15 0
BBX 12 11 2 2
BITMAP
8200
C100
E1C0
38E0
1870
0830
1870
38E0
61C0
C180
8200
ENDCHAR

STARTCHAR Ligature_OE
ENCODING 188
SWIDTH 891 0
DWIDTH 30 0
BBX 28 23 1 0
BITMAP
01FFFFC0
070780C0
0E0380C0
1C038040
38038040
78038000
78038000
70038000
F0038200
F0038200
F0038600
F003FE00
F0038600
F0038200
F0038200
70038000
78038000
78038010
38038030
1C038020
0E038060
070780E0
01FFFFC0
ENDCHAR

STARTCHAR Ligature_oe
ENCODING 189
SWIDTH 742 0
DWIDTH 25 0
BBX 23 16 1 0
BITMAP
0FC1F0
18E638
307C1C
60380E
60380E
E01FFE
E01800
E01800
E01800
E01802
E01C02
701E04
701F0C
383FFC
1C67F8
0F81E0
ENDCHAR

STARTCHAR Ydiaeresis
ENCODING 190
SWIDTH 586 0
DWIDTH 20 0
BBX 21 30 0 0
BITMAP
038E00
038E00
038E00
000000
000000
000000
000000
000000
FF03F8
3C00E0
1C00C0
1E00C0
0E0180
070300
070300
038600
03CE00
01CC00
01F800
00F800
007000
007000
007000
007000
007000
007000
007000
007000
007000
03FE00
ENDCHAR

STARTCHAR questiondown
ENCODING 191
SWIDTH 486 0
DWIDTH 16 0
BBX 12 22 2 0
BITMAP
0300
0780
0780
0300
0000
0000
0300
0300
0300
0300
0700
1C00
3800
7000
E000
E000
E000
E000
E060
7070
38F0
1FC0
ENDCHAR

STARTCHAR Agrave
ENCODING 192
SWIDTH 639 0
DWIDTH 21 0
BBX 22 31 0 0
BITMAP
078000
038000
01C000
00E000
006000
003000
000000
000000
000000
003000
007800
007800
007800
00DC00
00DC00
019E00
018E00
018E00
030700
030700
030700
060380
07FF80
0C01C0
0C01C0
0C01C0
1800E0
1800E0
3000F0
300070
FE03FC
ENDCHAR

STARTCHAR Aacute
ENCODING 193
SWIDTH 639 0
DWIDTH 21 0
BBX 22 31 0 0
BITMAP
000F00
000E00
001C00
003800
003000
006000
000000
000000
000000
003000
007800
007800
007800
00DC00
00DC00
019E00
018E00
018E00
030700
030700
030700
060380
07FF80
0C01C0
0C01C0
0C01C0
1800E0
1800E0
3000F0
300070
FE03FC
ENDCHAR

STARTCHAR Acircumflex
ENCODING 194
SWIDTH 639 0
DWIDTH 21 0
BBX 22 31 0 0
BITMAP
003000
007800
00CC00
00CC00
018600
030300
000000
000000
000000
003000
007800
007800
007800
00DC00
00DC00
019E00
018E00
018E00
030700
030700
030700
060380
07FF80
0C01C0
0C01C0
0C01C0
1800E0
1800E0
3000F0
300070
FE03FC
ENDCHAR

STARTCHAR Atilde
ENCODING 195
SWIDTH 639 0
DWIDTH 21 0
BBX 22 30 0 0
BITMAP
008100
01F300
033E00
020400
000000
000000
000000
000000
003000
007800
007800
007800
00DC00
00DC00
019E00
018E00
018E00
030700
030700
030700
060380
07FF80
0C01C0
0C01C0
0C01C0
1800E0
1800E0
3000F0
300070
FE03FC
ENDCHAR

STARTCHAR Adieresis
ENCODING 196
SWIDTH 639 0
DWIDTH 21 0
BBX 22 30 0 0
BITMAP
038E00
038E00
038E00
000000
000000
000000
000000
000000
003000
007800
007800
007800
00DC00
00DC00
019E00
018E00
018E00
030700
030700
030700
060380
07FF80
0C01C0
0C01C0
0C01C0
1800E0
1800E0
3000F0
300070
FE03FC
ENDCHAR

STARTCHAR Aring
ENCODING 197
SWIDTH 639 0
DWIDTH 21 0
BBX 22 32 0 0
BITMAP
007000
00F800
018C00
010400
010400
018C00
00F800
007000
000000
000000
003000
007800
007800
007800
00DC00
00DC00
019E00
018E00
018E00
030700
030700
030700
060380
07FF80
0C01C0
0C01C0
0C01C0
1800E0
1800E0
3000F0
300070
FE03FC
ENDCHAR

STARTCHAR AE
ENCODING 198
SWIDTH 866 0
DWIDTH 29 0
BBX 30 22 -2 0
BITMAP
001FFFF8
0007E038
0006E018
000EE018
000CE018
0018E000
0018E000
0030E040
0060E040
0060E040
00C0FFC0
0180E040
01FFE040
0300E000
0200E000
0600E000
0C00E00C
0C00E00C
1800E00C
1800E00C
3000E01C
FE03FFFC
ENDCHAR

STARTCHAR Ccedilla
ENCODING 199
SWIDTH 632 0
DWIDTH 21 0
BBX 19 29 1 -7
BITMAP
01FFC0
0F81E0
1E00E0
3C0060
780060
700060
700000
E00000
E00000
E00000
E00000
E00000
E00000
E00000
F00000
700000
700060
380060
3C0060
1E00E0
0F80E0
01FFC0
002000
002000
003800
000C00
000C00
000C00
00F800
ENDCHAR

STARTCHAR Egrave
ENCODING 200
SWIDTH 576 0
DWIDTH 19 0
BBX 17 31 1 0
BITMAP
1E0000
0E0000
070000
038000
018000
00C000
000000
000000
000000
FFFF00
1C0700
1C0300
1C0300
1C0300
1C0000
1C0000
1C0800
1C0800
1C0800
1FF800
1C0800
1C0800
1C0800
1C0000
1C0000
1C0000
1C0180
1C0180
1C0180
1C0380
FFFF80
ENDCHAR

STARTCHAR Eacute
ENCODING 201
SWIDTH 576 0
DWIDTH 19 0
BBX 17 31 1 0
BITMAP
003C00
003800
007000
00E000
00C000
018000
000000
000000
000000
FFFF00
1C0700
1C0300
1C0300
1C0300
1C0000
1C0000
1C0800
1C0800
1C0800
1FF800
1C0800
1C0800
1C0800
1C0000
1C0000
1C0000
1C0180
1C0180
1C0180
1C0380
FFFF80
ENDCHAR

STARTCHAR Ecircumflex
ENCODING 202
SWIDTH 576 0
DWIDTH 19 0
BBX 17 31 1 0
BITMAP
00C000
01E000
033000
033000
061800
0C0C00
000000
000000
000000
FFFF00
1C0700
1C0300
1C0300
1C0300
1C0000
1C0000
1C0800
1C0800
1C0800
1FF800
1C0800
1C0800
1C0800
1C0000
1C0000
1C0000
1C0180
1C0180
1C0180
1C0380
FFFF80
ENDCHAR

STARTCHAR Edieresis
ENCODING 203
SWIDTH 576 0
DWIDTH 19 0
BBX 17 30 1 0
BITMAP
0E3800
0E3800
0E3800
000000
000000
000000
000000
000000
FFFF00
1C0700
1C0300
1C0300
1C0300
1C0000
1C0000
1C0800
1C0800
1C0800
1FF800
1C0800
1C0800
1C0800
1C0000
1C0000
1C0000
1C0180
1C0180
1C0180
1C0380
FFFF80
ENDCHAR

STARTCHAR Igrave
ENCODING 204
SWIDTH 324 0
DWIDTH 11 0
BBX 10 31 0 0
BITMAP
F000
7000
3800
1C00
0C00
0600
0000
0000
0000
7FC0
0E00
0E00
0E00
0E00
0E00
0E00
0E00
0E00
0E00
0E00
0E00
0E00
0E00
0E00
0E00
0E00
0E00
0E00
0E00
0E00
7FC0
ENDCHAR

STARTCHAR Iacute
ENCODING 205
SWIDTH 324 0
DWIDTH 11 0
BBX 10 31 1 0
BITMAP
03C0
0380
0700
0E00
0C00
1800
0000
0000
0000
FF80
1C00
1C00
1C00
1C00
1C00
1C00
1C00
1C00
1C00
1C00
1C00
1C00
1C00
1C00
1C00
1C00
1C00
1C00
1C00
1C00
FF80
ENDCHAR

STARTCHAR Icircumflex
ENCODING 206
SWIDTH 324 0
DWIDTH 11 0
BBX 10 31 1 0
BITMAP
0C00
1E00
3300
3300
6180
C0C0
0000
0000
0000
FF80
1C00
1C00
1C00
1C00
1C00
1C00
1C00
1C00
1C00
1C00
1C00
1C00
1C00
1C00
1C00
1C00
1C00
1C00
1C00
1C00
FF80
ENDCHAR

STARTCHAR Idieresis
ENCODING 207
SWIDTH 324 0
DWIDTH 11 0
BBX 9 30 1 0
BITMAP
E380
E380
E380
0000
0000
0000
0000
0000
FF80
1C00
1C00
1C00
1C00
1C00
1C00
1C00
1C00
1C00
1C00
1C00
1C00
1C00
1C00
1C00
1C00
1C00
1C00
1C00
1C00
FF80
ENDCHAR

STARTCHAR Eth
ENCODING 208
SWIDTH 694 0
DWIDTH 23 0
BBX 22 22 0 0
BITMAP
7FFE00
0E07C0
0E01E0
0E00F0
0E0070
0E0038
0E0038
0E001C
0E001C
0E001C
FFF81C
0E001C
0E001C
0E001C
0E001C
0E0038
0E0038
0E0070
0E00F0
0E01E0
0E07C0
7FFE00
ENDCHAR

STARTCHAR Ntilde
ENCODING 209
SWIDTH 713 0
DWIDTH 24 0
BBX 22 30 1 0
BITMAP
004080
00F980
019F00
010200
000000
000000
000000
000000
FE01FC
1E0060
1F0060
1F0060
1B8060
1BC060
19C060
18E060
18E060
187060
183860
183860
181C60
181C60
180E60
180760
180760
1803E0
1803E0
1801E0
1800E0
FE00E0
ENDCHAR

STARTCHAR Ograve
ENCODING 210
SWIDTH 731 0
DWIDTH 24 0
BBX 22 31 1 0
BITMAP
078000
038000
01C000
00E000
006000
003000
000000
000000
000000
03FF00
0F03C0
1E01E0
380070
780078
700038
700038
E0001C
E0001C
E0001C
E0001C
E0001C
E0001C
E0001C
E0001C
700038
700038
780078
380070
1E01E0
0F03C0
03FF00
ENDCHAR

STARTCHAR Oacute
ENCODING 211
SWIDTH 731 0
DWIDTH 24 0
BBX 22 31 1 0
BITMAP
000F00
000E00
001C00
003800
003000
006000
000000
000000
000000
03FF00
0F03C0
1E01E0
380070
780078
700038
700038
E0001C
E0001C
E0001C
E0001C
E0001C
E0001C
E0001C
E0001C
700038
700038
780078
380070
1E01E0
0F03C0
03FF00
ENDCHAR

STARTCHAR Ocircumflex
ENCODING 212
SWIDTH 731 0
DWIDTH 24 0
BBX 22 31 1 0
BITMAP
003000
007800
00CC00
00CC00
018600
030300
000000
000000
000000
03FF00
0F03C0
1E01E0
380070
780078
700038
700038
E0001C
E0001C
E0001C
E0001C
E0001C
E0001C
E0001C
E0001C
700038
700038
780078
380070
1E01E0
0F03C0
03FF00
ENDCHAR

STARTCHAR Otilde
ENCODING 213
SWIDTH 731 0
DWIDTH 24 0
BBX 22 30 1 0
BITMAP
008100
01F300
033E00
020400
000000
000000
000000
000000
03FF00
0F03C0
1E01E0
380070
780078
700038
700038
E0001C
E0001C
E0001C
E0001C
E0001C
E0001C
E0001C
E0001C
700038
700038
780078
380070
1E01E0
0F03C0
03FF00
ENDCHAR

STARTCHAR Odieresis
ENCODING 214
SWIDTH 731 0
DWIDTH 24 0
BBX 22 30 1 0
BITMAP
038E00
038E00
038E00
000000
000000
000000
000000
000000
03FF00
0F03C0
1E01E0
380070
780078
700038
700038
E0001C
E0001C
E0001C
E0001C
E0001C
E0001C
E0001C
E0001C
700038
700038
780078
380070
1E01E0
0F03C0
03FF00
ENDCHAR

STARTCHAR multiply
ENCODING 215
SWIDTH 833 0
DWIDTH 28 0
BBX 18 18 5 1
BITMAP
400080
E001C0
700380
380700
1C0E00
0E1C00
073800
03F000
01E000
01E000
03F000
073800
0E1C00
1C0E00
380700
700380
E001C0
400080
ENDCHAR

STARTCHAR Oslash
ENCODING 216
SWIDTH 731 0
DWIDTH 24 0
BBX 22 26 1 -2
BITMAP
000030
000060
01FF60
0F03C0
1E01E0
3801F0
780378
700638
700638
E00C1C
E0181C
E0181C
E0301C
E0601C
E0601C
E0C01C
E1801C
718038
730038
7B0078
3E0070
1C01E0
0F03C0
1BFE00
300000
200000
ENDCHAR

STARTCHAR Ugrave
ENCODING 217
SWIDTH 694 0
DWIDTH 23 0
BBX 21 31 1 0
BITMAP
03C000
01C000
00E000
007000
003000
001800
000000
000000
000000
FF03F8
1C00C0
1C00C0
1C00C0
1C00C0
1C00C0
1C00C0
1C00C0
1C00C0
1C00C0
1C00C0
1C00C0
1C00C0
1C00C0
1C00C0
1C00C0
1C00C0
1E01C0
0E0180
0F0300
07FE00
01FC00
ENDCHAR

STARTCHAR Uacute
ENCODING 218
SWIDTH 694 0
DWIDTH 23 0
BBX 21 31 1 0
BITMAP
000780
000700
000E00
001C00
001800
003000
000000
000000
000000
FF03F8
1C00C0
1C00C0
1C00C0
1C00C0
1C00C0
1C00C0
1C00C0
1C00C0
1C00C0
1C00C0
1C00C0
1C00C0
1C00C0
1C00C0
1C00C0
1C00C0
1E01C0
0E0180
0F0300
07FE00
01FC00
ENDCHAR

STARTCHAR Ucircumflex
ENCODING 219
SWIDTH 694 0
DWIDTH 23 0
BBX 21 31 1 0
BITMAP
001800
003C00
006600
006600
00C300
018180
000000
000000
000000
FF03F8
1C00C0
1C00C0
1C00C0
1C00C0
1C00C0
1C00C0
1C00C0
1C00C0
1C00C0
1C00C0
1C00C0
1C00C0
1C00C0
1C00C0
1C00C0
1C00C0
1E01C0
0E0180
0F0300
07FE00
01FC00
ENDCHAR

STARTCHAR Udieresis
ENCODING 220
SWIDTH 694 0
DWIDTH 23 0
BBX 21 30 1 0
BITMAP
01C700
01C700
01C700
000000
000000
000000
000000
000000
FF03F8
1C00C0
1C00C0
1C00C0
1C00C0
1C00C0
1C00C0
1C00C0
1C00C0
1C00C0
1C00C0
1C00C0
1C00C0
1C00C0
1C00C0
1C00C0
1C00C0
1E01C0
0E0180
0F0300
07FE00
01FC00
ENDCHAR

STARTCHAR Yacute
ENCODING 221
SWIDTH 586 0
DWIDTH 20 0
BBX 21 31 0 0
BITMAP
001E00
001C00
003800
007000
006000
00C000
000000
000000
000000
FF03F8
3C00E0
1C00C0
1E00C0
0E0180
070300
070300
038600
03CE00
01CC00
01F800
00F800
007000
007000
007000
007000
007000
007000
007000
007000
007000
03FE00
ENDCHAR

STARTCHAR Thorn
ENCODING 222
SWIDTH 558 0
DWIDTH 19 0
BBX 17 22 1 0
BITMAP
FF8000
1C0000
1C0000
1C0000
1FFC00
1C1E00
1C0700
1C0780
1C0380
1C0380
1C0380
1C0380
1C0380
1C0700
1C0700
1C1E00
1FF800
1C0000
1C0000
1C0000
1C0000
FF8000
ENDCHAR

STARTCHAR germandbls
ENCODING 223
SWIDTH 609 0
DWIDTH 20 0
BBX 18 24 1 0
BITMAP
01F800
071C00
0E0C00
1C0E00
1C0E00
180E00
380E00
380E00
383C00
387000
386000
386000
386000
387000
387C00
383E00
380F80
3807C0
3803C0
3841C0
3841C0
384180
386380
FE7E00
ENDCHAR

STARTCHAR agrave
ENCODING 224
SWIDTH 507 0
DWIDTH 17 0
BBX 15 24 1 0
BITMAP
3C00
1C00
0E00
0700
0300
0180
0000
0000
0FE0
3070
7038
7038
0038
0038
00F8
0F38
3C38
7038
E038
E038
E038
F078
79F8
3F3E
ENDCHAR

STARTCHAR aacute
ENCODING 225
SWIDTH 507 0
DWIDTH 17 0
BBX 15 24 1 0
BITMAP
0078
0070
00E0
01C0
0180
0300
0000
0000
0FE0
3070
7038
7038
0038
0038
00F8
0F38
3C38
7038
E038
E038
E038
F078
79F8
3F3E
ENDCHAR

STARTCHAR acircumflex
ENCODING 226
SWIDTH 507 0
DWIDTH 17 0
BBX 15 24 1 0
BITMAP
0180
03C0
0660
0660
0C30
1818
0000
0000
0FE0
3070
7038
7038
0038
0038
00F8
0F38
3C38
7038
E038
E038
E038
F078
79F8
3F3E
ENDCHAR

STARTCHAR atilde
ENCODING 227
SWIDTH 507 0
DWIDTH 17 0
BBX 15 23 1 0
BITMAP
0408
0F98
19F0
1020
0000
0000
0000
0FE0
3070
7038
7038
0038
0038
00F8
0F38
3C38
7038
E038
E038
E038
F078
79F8
3F3E
ENDCHAR

STARTCHAR adieresis
ENCODING 228
SWIDTH 507 0
DWIDTH 17 0
BBX 15 23 1 0
BITMAP
1C70
1C70
1C70
0000
0000
0000
0000
0FE0
3070
7038
7038
0038
0038
00F8
0F38
3C38
7038
E038
E038
E038
F078
79F8
3F3E
ENDCHAR

STARTCHAR aring
ENCODING 229
SWIDTH 507 0
DWIDTH 17 0
BBX 15 26 1 0
BITMAP
0780
0FC0
0C60
1820
1820
0C60
0FC0
0780
0000
0000
0FE0
3070
7038
7038
0038
0038
00F8
0F38
3C38
7038
E038
E038
E038
F078
79F8
3F3E
ENDCHAR

STARTCHAR ae
ENCODING 230
SWIDTH 725 0
DWIDTH 24 0
BBX 22 16 1 0
BITMAP
0FE3E0
387E38
703C18
70381C
00381C
00381C
01FFFC
1F3800
783800
703800
E03800
E03800
E03C04
F0FE0C
7F8FF8
3E03E0
ENDCHAR

STARTCHAR ccedilla
ENCODING 231
SWIDTH 446 0
DWIDTH 15 0
BBX 13 23 1 -7
BITMAP
07E0
1C38
3838
7038
7030
E000
E000
E000
E000
E000
E000
7000
7800
3C18
1FF8
07E0
0100
0100
01C0
0060
0060
0060
07C0
ENDCHAR

STARTCHAR egrave
ENCODING 232
SWIDTH 491 0
DWIDTH 16 0
BBX 14 24 1 0
BITMAP
3C00
1C00
0E00
0700
0300
0180
0000
0000
0FE0
1C78
3038
701C
601C
E01C
FFFC
E000
E000
E000
E000
7000
7000
7804
3E1C
0FF0
ENDCHAR

STARTCHAR eacute
ENCODING 233
SWIDTH 491 0
DWIDTH 16 0
BBX 14 24 1 0
BITMAP
0078
0070
00E0
01C0
0180
0300
0000
0000
0FE0
1C78
3038
701C
601C
E01C
FFFC
E000
E000
E000
E000
7000
7000
7804
3E1C
0FF0
ENDCHAR

STARTCHAR ecircumflex
ENCODING 234
SWIDTH 491 0
DWIDTH 16 0
BBX 14 24 1 0
BITMAP
0180
03C0
0660
0660
0C30
1818
0000
0000
0FE0
1C78
3038
701C
601C
E01C
FFFC
E000
E000
E000
E000
7000
7000
7804
3E1C
0FF0
ENDCHAR

STARTCHAR edieresis
ENCODING 235
SWIDTH 491 0
DWIDTH 16 0
BBX 14 23 1 0
BITMAP
1C70
1C70
1C70
0000
0000
0000
0000
0FE0
1C78
3038
701C
601C
E01C
FFFC
E000
E000
E000
E000
7000
7000
7804
3E1C
0FF0
ENDCHAR

STARTCHAR igrave
ENCODING 236
SWIDTH 280 0
DWIDTH 9 0
BBX 9 24 -1 0
BITMAP
F000
7000
3800
1C00
0C00
0600
0000
0000
0E00
3E00
0E00
0E00
0E00
0E00
0E00
0E00
0E00
0E00
0E00
0E00
0E00
0E00
0E00
3F80
ENDCHAR

STARTCHAR iacute
ENCODING 237
SWIDTH 280 0
DWIDTH 9 0
BBX 9 24 1 0
BITMAP
0780
0700
0E00
1C00
1800
3000
0000
0000
3800
F800
3800
3800
3800
3800
3800
3800
3800
3800
3800
3800
3800
3800
3800
FE00
ENDCHAR

STARTCHAR icircumflex
ENCODING 238
SWIDTH 280 0
DWIDTH 9 0
BBX 10 24 0 0
BITMAP
0C00
1E00
3300
3300
6180
C0C0
0000
0000
1C00
7C00
1C00
1C00
1C00
1C00
1C00
1C00
1C00
1C00
1C00
1C00
1C00
1C00
1C00
7F00
ENDCHAR

STARTCHAR idieresis
ENCODING 239
SWIDTH 280 0
DWIDTH 9 0
BBX 9 23 0 0
BITMAP
E380
E380
E380
0000
0000
0000
0000
1C00
7C00
1C00
1C00
1C00
1C00
1C00
1C00
1C00
1C00
1C00
1C00
1C00
1C00
1C00
7F00
ENDCHAR

STARTCHAR eth
ENCODING 240
SWIDTH 528 0
DWIDTH 18 0
BBX 16 24 1 0
BITMAP
0608
1F1C
03F0
01C0
07E0
1C70
1078
0038
07FC
1C0E
380E
700E
7007
E007
E007
E007
E007
E007
E006
700E
700E
381C
1C38
0FE0
ENDCHAR

STARTCHAR ntilde
ENCODING 241
SWIDTH 569 0
DWIDTH 19 0
BBX 17 23 1 0
BITMAP
020400
07CC00
0CF800
081000
000000
000000
000000
39F800
FFFC00
3C1E00
380E00
380E00
380E00
380E00
380E00
380E00
380E00
380E00
380E00
380E00
380E00
380E00
FE3F80
ENDCHAR

STARTCHAR ograve
ENCODING 242
SWIDTH 539 0
DWIDTH 18 0
BBX 16 24 1 0
BITMAP
1E00
0E00
0700
0380
0180
00C0
0000
0000
07F0
1C3C
381C
700E
700E
E007
E007
E007
E007
E007
E007
700E
700E
381C
1C38
0FE0
ENDCHAR

STARTCHAR oacute
ENCODING 243
SWIDTH 539 0
DWIDTH 18 0
BBX 16 24 1 0
BITMAP
003C
0038
0070
00E0
00C0
0180
0000
0000
07F0
1C3C
381C
700E
700E
E007
E007
E007
E007
E007
E007
700E
700E
381C
1C38
0FE0
ENDCHAR

STARTCHAR ocircumflex
ENCODING 244
SWIDTH 539 0
DWIDTH 18 0
BBX 16 24 1 0
BITMAP
00C0
01E0
0330
0330
0618
0C0C
0000
0000
07F0
1C3C
381C
700E
700E
E007
E007
E007
E007
E007
E007
700E
700E
381C
1C38
0FE0
ENDCHAR

STARTCHAR otilde
ENCODING 245
SWIDTH 539 0
DWIDTH 18 0
BBX 16 23 1 0
BITMAP
0204
07CC
0CF8
0810
0000
0000
0000
07F0
1C3C
381C
700E
700E
E007
E007
E007
E007
E007
E007
700E
700E
381C
1C38
0FE0
ENDCHAR

STARTCHAR odieresis
ENCODING 246
SWIDTH 539 0
DWIDTH 18 0
BBX 16 23 1 0
BITMAP
0E38
0E38
0E38
0000
0000
0000
0000
07F0
1C3C
381C
700E
700E
E007
E007
E007
E007
E007
E007
700E
700E
381C
1C38
0FE0
ENDCHAR

STARTCHAR divide
ENCODING 247
SWIDTH 833 0
DWIDTH 28 0
BBX 20 16 4 2
BITMAP
006000
00F000
00F000
006000
000000
000000
000000
FFFFF0
FFFFF0
000000
000000
000000
006000
00F000
00F000
006000
ENDCHAR

STARTCHAR oslash
ENCODING 248
SWIDTH 539 0
DWIDTH 18 0
BBX 16 20 1 -2
BITMAP
0006
000C
07F8
1C38
383C
702E
706E
E0C7
E087
E187
E107
E307
E607
740E
7C0E
381C
1C38
3FE0
2000
6000
ENDCHAR

STARTCHAR ugrave
ENCODING 249
SWIDTH 569 0
DWIDTH 19 0
BBX 17 24 1 0
BITMAP
1E0000
0E0000
070000
038000
018000
00C000
000000
000000
380E00
F83E00
380E00
380E00
380E00
380E00
380E00
380E00
380E00
380E00
380E00
380E00
380E00
3C1E00
1FEE00
0FCF80
ENDCHAR

STARTCHAR uacute
ENCODING 250
SWIDTH 569 0
DWIDTH 19 0
BBX 17 24 1 0
BITMAP
003C00
003800
007000
00E000
00C000
018000
000000
000000
380E00
F83E00
380E00
380E00
380E00
380E00
380E00
380E00
380E00
380E00
380E00
380E00
380E00
3C1E00
1FEE00
0FCF80
ENDCHAR

STARTCHAR ucircumflex
ENCODING 251
SWIDTH 569 0
DWIDTH 19 0
BBX 17 24 1 0
BITMAP
00C000
01E000
033000
033000
061800
0C0C00
000000
000000
380E00
F83E00
380E00
380E00
380E00
380E00
380E00
380E00
380E00
380E00
380E00
380E00
380E00
3C1E00
1FEE00
0FCF80
ENDCHAR

STARTCHAR udieresis
ENCODING 252
SWIDTH 569 0
DWIDTH 19 0
BBX 17 23 1 0
BITMAP
0E3800
0E3800
0E3800
000000
000000
000000
000000
380E00
F83E00
380E00
380E00
380E00
380E00
380E00
380E00
380E00
380E00
380E00
380E00
380E00
3C1E00
1FEE00
0FCF80
ENDCHAR

STARTCHAR yacute
ENCODING 253
SWIDTH 495 0
DWIDTH 16 0
BBX 17 31 0 -7
BITMAP
003C00
003800
007000
00E000
00C000
018000
000000
000000
FE1F80
380600
180600
1C0C00
1C0C00
0C0800
0E1800
0E1800
071000
073000
032000
03E000
03E000
01C000
01C000
018000
018000
018000
030000
030000
760000
7C0000
380000
ENDCHAR

STARTCHAR thorn
ENCODING 254
SWIDTH 551 0
DWIDTH 18 0
BBX 16 31 1 -7
BITMAP
3800
F800
3800
3800
3800
3800
3800
3800
39F0
3BFC
3C3C
380E
380E
3807
3807
3807
3807
3807
3807
380E
380E
381C
3838
3FE0
3800
3800
3800
3800
3800
3800
FF00
ENDCHAR

STARTCHAR ydieresis
ENCODING 255
SWIDTH 495 0
DWIDTH 16 0
BBX 17 30 0 -7
BITMAP
0E3800
0E3800
0E3800
000000
000000
000000
000000
FE1F80
380600
180600
1C0C00
1C0C00
0C0800
0E1800
0E1800
071000
073000
032000
03E000
03E000
01C000
01C000
018000
018000
018000
030000
030000
760000
7C0000
380000
ENDCHAR
ENDFONT
